{
  "accessors": [
    {
      "bufferView": 2,
      "componentType": 5126,
      "count": 43685,
      "max": [
        18.333890914916992,
        19.794479370117188,
        4.641260147094727
      ],
      "min": [
        -18.333890914916992,
        -19.794479370117188,
        -73.99758911132813
      ],
      "type": "VEC3"
    },
    {
      "bufferView": 2,
      "byteOffset": 524220,
      "componentType": 5126,
      "count": 43685,
      "max": [
        0.9998266100883484,
        0.9999917149543762,
        0.9999997615814209
      ],
      "min": [
        -0.9998893737792969,
        -0.9996129274368286,
        -1.0
      ],
      "type": "VEC3"
    },
    {
      "bufferView": 1,
      "componentType": 5126,
      "count": 43685,
      "max": [
        0.11287999898195267,
        0.9964200258255005
      ],
      "min": [
        0.0017099999822676182,
        0.006099999882280827
      ],
      "type": "VEC2"
    },
    {
      "bufferView": 0,
      "componentType": 5125,
      "count": 156204,
      "type": "SCALAR"
    }
  ],
  "asset": {
    "extras": {
      "author": "Hanes (https://sketchfab.com/hanesbrands)",
      "license": "CC-BY-ND-4.0 (http://creativecommons.org/licenses/by-nd/4.0/)",
      "source": "https://sketchfab.com/3d-models/sock-995d12d667be4dbcbd780df341f2115d",
      "title": "Sock"
    },
    "generator": "Sketchfab-12.65.0",
    "version": "2.0"
  },
  "bufferViews": [
    {
      "buffer": 0,
      "byteLength": 624816,
      "name": "floatBufferViews",
      "target": 34963
    },
    {
      "buffer": 0,
      "byteLength": 349480,
      "byteOffset": 624816,
      "byteStride": 8,
      "name": "floatBufferViews",
      "target": 34962
    },
    {
      "buffer": 0,
      "byteLength": 1048440,
      "byteOffset": 974296,
      "byteStride": 12,
      "name": "floatBufferViews",
      "target": 34962
    }
  ],
  "buffers": [
    {
      "byteLength": 2022736,
      "uri": "scene.bin"
    }
  ],
  "extensionsUsed": [
    "KHR_materials_unlit"
  ],
  "images": [
    {
      "uri": "textures/material0_baseColor.jpeg"
    }
  ],
  "materials": [
    {
      "doubleSided": true,
      "emissiveTexture": {
        "index": 0
      },
      "extensions": {
        "KHR_materials_unlit": {}
      },
      "name": "material0",
      "pbrMetallicRoughness": {
        "baseColorTexture": {
          "index": 0
        },
        "metallicFactor": 0.0
      }
    }
  ],
  "meshes": [
    {
      "name": "Object_0",
      "primitives": [
        {
          "attributes": {
            "NORMAL": 1,
            "POSITION": 0,
            "TEXCOORD_0": 2
          },
          "indices": 3,
          "material": 0,
          "mode": 4
        }
      ]
    }
  ],
  "nodes": [
    {
      "children": [
        1
      ],
      "matrix": [
        1.0,
        -2.8327693431939985e-16,
        -2.8327693431939995e-16,
        0.0,
        -2.832769343193999e-16,
        5.053215392444312e-16,
        -1.0,
        0.0,
        2.832769343193999e-16,
        1.0,
        5.053215392444312e-16,
        0.0,
        9.823542532812896e-15,
        -2.1812646206626808e-30,
        9.823542532812896e-15,
        1.0
      ],
      "name": "Sketchfab_model"
    },
    {
      "children": [
        2
      ],
      "name": "model_New Qlone_20190710_130034898.obj.cleaner.materialmerger.gles"
    },
    {
      "mesh": 0,
      "name": "Object_2"
    }
  ],
  "samplers": [
    {
      "magFilter": 9729,
      "minFilter": 9987,
      "wrapS": 10497,
      "wrapT": 10497
    }
  ],
  "scene": 0,
  "scenes": [
    {
      "name": "Sketchfab_Scene",
      "nodes": [
        0
      ]
    }
  ],
  "textures": [
    {
      "sampler": 0,
      "source": 0
    }
  ]
}
